<svg width="18" height="22" viewBox="0 0 18 22" fill="none" xmlns="http://www.w3.org/2000/svg">
<path d="M1.6875 22C1.2375 22 0.84375 21.835 0.50625 21.505C0.16875 21.175 0 20.79 0 20.35V6.05C0 5.61 0.16875 5.225 0.50625 4.895C0.84375 4.565 1.2375 4.4 1.6875 4.4H4.78125V4.125C4.78125 2.97 5.18906 1.99375 6.00469 1.19625C6.82031 0.39875 7.81875 0 9 0C10.1812 0 11.1797 0.39875 11.9953 1.19625C12.8109 1.99375 13.2188 2.97 13.2188 4.125V4.4H16.3125C16.7625 4.4 17.1562 4.565 17.4937 4.895C17.8312 5.225 18 5.61 18 6.05V20.35C18 20.79 17.8312 21.175 17.4937 21.505C17.1562 21.835 16.7625 22 16.3125 22H1.6875ZM1.6875 20.35H16.3125V6.05H13.2188V8.525C13.2188 8.76333 13.1391 8.96042 12.9797 9.11625C12.8203 9.27208 12.6188 9.35 12.375 9.35C12.1312 9.35 11.9297 9.27208 11.7703 9.11625C11.6109 8.96042 11.5312 8.76333 11.5312 8.525V6.05H6.46875V8.525C6.46875 8.76333 6.38906 8.96042 6.22969 9.11625C6.07031 9.27208 5.86875 9.35 5.625 9.35C5.38125 9.35 5.17969 9.27208 5.02031 9.11625C4.86094 8.96042 4.78125 8.76333 4.78125 8.525V6.05H1.6875V20.35ZM6.46875 4.4H11.5312V4.125C11.5312 3.42833 11.2875 2.84167 10.8 2.365C10.3125 1.88833 9.7125 1.65 9 1.65C8.2875 1.65 7.6875 1.88833 7.2 2.365C6.7125 2.84167 6.46875 3.42833 6.46875 4.125V4.4ZM1.6875 20.35V6.05V20.35Z" fill="black"/>
</svg>
