<svg width="150" height="86" viewBox="0 0 150 86" fill="none" xmlns="http://www.w3.org/2000/svg">
<path d="M87.5 26.5L75 43C75 28 63.5 15 45.5 14.5C31.1 14.1 22.1667 24.3333 19.5 29.5C12.3 44.3 18.1667 57.3333 22 62C32 74 46.8333 74 53 72.5L42.5 86C25.7 85.2 14.1667 76 10.5 71.5C6.33334 66.8333 -1.39999 53.5 1.00001 37.5C3.40001 21.5 13 12.1667 17.5 9.50001C27.9 0.700008 43.8333 0.166675 50.5 1.00001C71.7 2.20001 84 18.5 87.5 26.5Z" fill="#324D67"/>
<path d="M62.1438 59.499L74.7356 43.069C74.6519 58.0688 86.0793 71.1327 104.076 71.733C118.474 72.2133 127.464 62.03 130.159 56.8782C137.442 42.1186 131.648 29.0528 127.841 24.3648C117.908 12.3092 103.075 12.2265 96.8997 13.6921L107.475 0.250884C124.27 1.14454 135.752 10.4087 139.393 14.9291C143.534 19.6189 151.193 32.9951 148.704 48.9815C146.215 64.9679 136.563 74.2475 132.048 76.8891C121.599 85.6309 105.663 86.0754 99.001 85.2049C77.808 83.8868 65.5991 67.5184 62.1438 59.499Z" fill="#324D67"/>
<path d="M49.5 66.5V58.5C30.3 57.3 29.8333 44 32 37.5L59.5 58.5C66.7 50.5 66.1667 39.8333 65 35.5C60.2 19.9 45.6667 19 39 20.5C23.4 24.9 20.8333 38.3333 21.5 44.5C25.5 64.1 41.8333 67.3333 49.5 66.5Z" fill="#E23D7D"/>
<path d="M56 46.3712L37 31.8712C43.4 26.6712 50.6667 29.7045 53.5 31.8712C59.1 35.8712 57.5 43.2045 56 46.3712Z" fill="#F7F7F7"/>
</svg>
