<svg width="152" height="110" viewBox="0 0 152 110" fill="none" xmlns="http://www.w3.org/2000/svg">
<path d="M75.4347 105V90.4545H84.8949V92.6634H78.0696V96.6122H84.4048V98.821H78.0696V102.791H84.9517V105H75.4347ZM94.0817 96.669V98.7855H87.5334V96.669H94.0817ZM104.804 94.4531C104.738 93.8329 104.459 93.3499 103.966 93.0043C103.479 92.6586 102.844 92.4858 102.063 92.4858C101.514 92.4858 101.042 92.5687 100.65 92.7344C100.257 92.9001 99.9558 93.125 99.7475 93.4091C99.5392 93.6932 99.4326 94.0175 99.4279 94.3821C99.4279 94.6851 99.4966 94.9479 99.6339 95.1705C99.7759 95.393 99.9677 95.5824 100.209 95.7386C100.451 95.8902 100.718 96.018 101.012 96.1222C101.305 96.2263 101.601 96.3139 101.9 96.3849L103.263 96.7259C103.812 96.8537 104.34 97.0265 104.847 97.2443C105.358 97.4621 105.815 97.7367 106.218 98.0682C106.625 98.3996 106.947 98.7997 107.184 99.2685C107.42 99.7372 107.539 100.286 107.539 100.916C107.539 101.768 107.321 102.519 106.885 103.168C106.45 103.812 105.82 104.316 104.996 104.68C104.177 105.04 103.185 105.22 102.02 105.22C100.889 105.22 99.9061 105.045 99.0728 104.695C98.2442 104.344 97.5955 103.833 97.1268 103.161C96.6628 102.488 96.4118 101.669 96.3739 100.703H98.9663C99.0041 101.21 99.1604 101.631 99.435 101.967C99.7096 102.304 100.067 102.554 100.507 102.72C100.953 102.886 101.45 102.969 101.999 102.969C102.572 102.969 103.074 102.884 103.505 102.713C103.94 102.538 104.281 102.296 104.527 101.989C104.774 101.676 104.899 101.312 104.904 100.895C104.899 100.516 104.788 100.204 104.57 99.9574C104.352 99.7064 104.047 99.4981 103.654 99.3324C103.266 99.1619 102.811 99.0104 102.29 98.8778L100.635 98.4517C99.4374 98.1439 98.4904 97.6776 97.7944 97.0526C97.1031 96.4228 96.7575 95.5871 96.7575 94.5455C96.7575 93.6884 96.9895 92.938 97.4535 92.294C97.9222 91.6501 98.5591 91.1506 99.364 90.7955C100.169 90.4356 101.08 90.2557 102.098 90.2557C103.131 90.2557 104.035 90.4356 104.811 90.7955C105.593 91.1506 106.206 91.6454 106.651 92.2798C107.096 92.9096 107.326 93.634 107.34 94.4531H104.804ZM114.533 105.213C113.444 105.213 112.509 104.974 111.727 104.496C110.951 104.018 110.352 103.357 109.93 102.514C109.514 101.667 109.305 100.691 109.305 99.5881C109.305 98.4801 109.518 97.5024 109.945 96.6548C110.371 95.8026 110.972 95.1397 111.749 94.6662C112.53 94.188 113.453 93.9489 114.518 93.9489C115.404 93.9489 116.188 94.1122 116.869 94.4389C117.556 94.7609 118.103 95.2178 118.51 95.8097C118.917 96.3968 119.149 97.0833 119.206 97.8693H116.749C116.649 97.3437 116.412 96.9058 116.038 96.5554C115.669 96.2003 115.174 96.0227 114.554 96.0227C114.028 96.0227 113.567 96.1648 113.169 96.4489C112.771 96.7282 112.461 97.1307 112.239 97.6562C112.021 98.1818 111.912 98.8116 111.912 99.5455C111.912 100.289 112.021 100.928 112.239 101.463C112.456 101.993 112.762 102.403 113.155 102.692C113.553 102.976 114.019 103.118 114.554 103.118C114.933 103.118 115.271 103.047 115.57 102.905C115.873 102.758 116.126 102.547 116.33 102.273C116.533 101.998 116.673 101.664 116.749 101.271H119.206C119.144 102.043 118.917 102.727 118.524 103.324C118.131 103.916 117.596 104.38 116.919 104.716C116.242 105.047 115.446 105.213 114.533 105.213ZM126.076 105.213C125.01 105.213 124.087 104.979 123.306 104.51C122.525 104.041 121.918 103.385 121.488 102.543C121.061 101.7 120.848 100.715 120.848 99.5881C120.848 98.4612 121.061 97.474 121.488 96.6264C121.918 95.7789 122.525 95.1207 123.306 94.652C124.087 94.1832 125.01 93.9489 126.076 93.9489C127.141 93.9489 128.064 94.1832 128.846 94.652C129.627 95.1207 130.23 95.7789 130.657 96.6264C131.087 97.474 131.303 98.4612 131.303 99.5881C131.303 100.715 131.087 101.7 130.657 102.543C130.23 103.385 129.627 104.041 128.846 104.51C128.064 104.979 127.141 105.213 126.076 105.213ZM126.09 103.153C126.667 103.153 127.15 102.995 127.539 102.678C127.927 102.356 128.216 101.925 128.405 101.385C128.599 100.845 128.696 100.244 128.696 99.581C128.696 98.9134 128.599 98.3097 128.405 97.7699C128.216 97.2254 127.927 96.7921 127.539 96.4702C127.15 96.1482 126.667 95.9872 126.09 95.9872C125.498 95.9872 125.006 96.1482 124.613 96.4702C124.224 96.7921 123.933 97.2254 123.739 97.7699C123.55 98.3097 123.455 98.9134 123.455 99.581C123.455 100.244 123.55 100.845 123.739 101.385C123.933 101.925 124.224 102.356 124.613 102.678C125.006 102.995 125.498 103.153 126.09 103.153ZM138.244 105.213C137.178 105.213 136.255 104.979 135.474 104.51C134.692 104.041 134.086 103.385 133.656 102.543C133.229 101.7 133.016 100.715 133.016 99.5881C133.016 98.4612 133.229 97.474 133.656 96.6264C134.086 95.7789 134.692 95.1207 135.474 94.652C136.255 94.1832 137.178 93.9489 138.244 93.9489C139.309 93.9489 140.232 94.1832 141.013 94.652C141.795 95.1207 142.398 95.7789 142.825 96.6264C143.255 97.474 143.471 98.4612 143.471 99.5881C143.471 100.715 143.255 101.7 142.825 102.543C142.398 103.385 141.795 104.041 141.013 104.51C140.232 104.979 139.309 105.213 138.244 105.213ZM138.258 103.153C138.835 103.153 139.318 102.995 139.707 102.678C140.095 102.356 140.384 101.925 140.573 101.385C140.767 100.845 140.864 100.244 140.864 99.581C140.864 98.9134 140.767 98.3097 140.573 97.7699C140.384 97.2254 140.095 96.7921 139.707 96.4702C139.318 96.1482 138.835 95.9872 138.258 95.9872C137.666 95.9872 137.174 96.1482 136.781 96.4702C136.392 96.7921 136.101 97.2254 135.907 97.7699C135.718 98.3097 135.623 98.9134 135.623 99.581C135.623 100.244 135.718 100.845 135.907 101.385C136.101 101.925 136.392 102.356 136.781 102.678C137.174 102.995 137.666 103.153 138.258 103.153ZM151.1 94.0909V96.0795H144.829V94.0909H151.1ZM146.377 91.4773H148.949V101.719C148.949 102.064 149.001 102.33 149.105 102.514C149.214 102.694 149.356 102.817 149.531 102.884C149.706 102.95 149.9 102.983 150.113 102.983C150.274 102.983 150.421 102.971 150.554 102.947C150.691 102.924 150.795 102.902 150.866 102.884L151.299 104.893C151.162 104.941 150.966 104.993 150.71 105.05C150.459 105.107 150.151 105.14 149.787 105.149C149.143 105.168 148.563 105.071 148.047 104.858C147.53 104.64 147.121 104.304 146.818 103.849C146.52 103.395 146.373 102.827 146.377 102.145V91.4773Z" fill="#324D67"/>
<path d="M86.9523 26.5L74.4523 43C74.4523 28 62.9523 15 44.9523 14.5C30.5523 14.1 21.619 24.3333 18.9523 29.5C11.7523 44.3 17.619 57.3333 21.4523 62C31.4523 74 46.2857 74 52.4523 72.5L41.9523 86C25.1523 85.2 13.619 76 9.95234 71.5C5.78567 66.8333 -1.94766 53.5 0.45234 37.5C2.85234 21.5 12.4523 12.1667 16.9523 9.49999C27.3523 0.699993 43.2857 0.16666 49.9523 0.999993C71.1523 2.19999 83.4523 18.5 86.9523 26.5Z" fill="#324D67"/>
<path d="M61.5961 59.4991L74.1879 43.069C74.1042 58.0688 85.5316 71.1327 103.529 71.7331C117.926 72.2133 126.916 62.03 129.612 56.8783C136.894 42.1186 131.1 29.0528 127.293 24.3648C117.36 12.3093 102.527 12.2266 96.352 13.6921L106.927 0.250899C123.722 1.14456 135.204 10.4087 138.846 14.9291C142.986 19.6189 150.645 32.9952 148.156 48.9815C145.667 64.9679 136.015 74.2476 131.5 76.8891C121.051 85.631 105.115 86.0754 98.4533 85.205C77.2603 83.8868 65.0514 67.5185 61.5961 59.4991Z" fill="#324D67"/>
<path d="M48.9523 66.5V58.5C29.7523 57.3 29.2857 44 31.4523 37.5L58.9523 58.5C66.1523 50.5 65.619 39.8333 64.4523 35.5C59.6523 19.9 45.119 19 38.4523 20.5C22.8523 24.9 20.2857 38.3333 20.9523 44.5C24.9523 64.1 41.2857 67.3333 48.9523 66.5Z" fill="#E23D7D"/>
<path d="M55.4523 46.3712L36.4523 31.8712C42.8523 26.6712 50.119 29.7045 52.9523 31.8712C58.5523 35.8712 56.9523 43.2045 55.4523 46.3712Z" fill="#F7F7F7"/>
</svg>
