<svg width="154" height="110" viewBox="0 0 154 110" fill="none" xmlns="http://www.w3.org/2000/svg">
<path d="M62.4347 105V90.4545H71.8949V92.6634H65.0696V96.6122H71.4048V98.821H65.0696V102.791H71.9517V105H62.4347ZM82.4879 94.4531C82.4216 93.8329 82.1423 93.3499 81.6499 93.0043C81.1622 92.6586 80.5277 92.4858 79.7464 92.4858C79.1972 92.4858 78.7261 92.5687 78.3331 92.7344C77.9401 92.9001 77.6394 93.125 77.4311 93.4091C77.2228 93.6932 77.1162 94.0175 77.1115 94.3821C77.1115 94.6851 77.1802 94.9479 77.3175 95.1705C77.4595 95.393 77.6513 95.5824 77.8928 95.7386C78.1342 95.8902 78.4018 96.018 78.6953 96.1222C78.9889 96.2263 79.2848 96.3139 79.5831 96.3849L80.9467 96.7259C81.496 96.8537 82.0239 97.0265 82.5305 97.2443C83.0419 97.4621 83.4988 97.7367 83.9013 98.0682C84.3085 98.3996 84.6304 98.7997 84.8672 99.2685C85.1039 99.7372 85.2223 100.286 85.2223 100.916C85.2223 101.768 85.0045 102.519 84.5689 103.168C84.1333 103.812 83.5036 104.316 82.6797 104.68C81.8606 105.04 80.8686 105.22 79.7038 105.22C78.5722 105.22 77.5897 105.045 76.7564 104.695C75.9278 104.344 75.2791 103.833 74.8104 103.161C74.3464 102.488 74.0954 101.669 74.0575 100.703H76.6499C76.6877 101.21 76.844 101.631 77.1186 101.967C77.3932 102.304 77.7507 102.554 78.1911 102.72C78.6361 102.886 79.1333 102.969 79.6825 102.969C80.2554 102.969 80.7573 102.884 81.1882 102.713C81.6238 102.538 81.9647 102.296 82.2109 101.989C82.4571 101.676 82.5826 101.312 82.5874 100.895C82.5826 100.516 82.4714 100.204 82.2536 99.9574C82.0357 99.7064 81.7304 99.4981 81.3374 99.3324C80.9491 99.1619 80.4946 99.0104 79.9737 98.8778L78.3189 98.4517C77.121 98.1439 76.174 97.6776 75.478 97.0526C74.7867 96.4228 74.4411 95.5871 74.4411 94.5455C74.4411 93.6884 74.6731 92.938 75.1371 92.294C75.6058 91.6501 76.2427 91.1506 77.0476 90.7955C77.8525 90.4356 78.764 90.2557 79.782 90.2557C80.8142 90.2557 81.7185 90.4356 82.495 90.7955C83.2763 91.1506 83.8894 91.6454 84.3345 92.2798C84.7796 92.9096 85.0092 93.634 85.0234 94.4531H82.4879ZM92.2163 105.213C91.1272 105.213 90.1921 104.974 89.4109 104.496C88.6344 104.018 88.0354 103.357 87.614 102.514C87.1973 101.667 86.989 100.691 86.989 99.5881C86.989 98.4801 87.2021 97.5024 87.6282 96.6548C88.0543 95.8026 88.6557 95.1397 89.4322 94.6662C90.2134 94.188 91.1367 93.9489 92.2021 93.9489C93.0875 93.9489 93.8711 94.1122 94.5529 94.4389C95.2395 94.7609 95.7863 95.2178 96.1935 95.8097C96.6007 96.3968 96.8327 97.0833 96.8896 97.8693H94.4322C94.3327 97.3437 94.096 96.9058 93.7219 96.5554C93.3526 96.2003 92.8578 96.0227 92.2376 96.0227C91.712 96.0227 91.2504 96.1648 90.8526 96.4489C90.4549 96.7282 90.1448 97.1307 89.9222 97.6562C89.7044 98.1818 89.5955 98.8116 89.5955 99.5455C89.5955 100.289 89.7044 100.928 89.9222 101.463C90.14 101.993 90.4454 102.403 90.8384 102.692C91.2362 102.976 91.7025 103.118 92.2376 103.118C92.6164 103.118 92.9549 103.047 93.2532 102.905C93.5562 102.758 93.8095 102.547 94.0131 102.273C94.2167 101.998 94.3564 101.664 94.4322 101.271H96.8896C96.828 102.043 96.6007 102.727 96.2077 103.324C95.8147 103.916 95.2797 104.38 94.6026 104.716C93.9255 105.047 93.1301 105.213 92.2163 105.213ZM103.759 105.213C102.694 105.213 101.771 104.979 100.989 104.51C100.208 104.041 99.602 103.385 99.1712 102.543C98.745 101.7 98.532 100.715 98.532 99.5881C98.532 98.4612 98.745 97.474 99.1712 96.6264C99.602 95.7789 100.208 95.1207 100.989 94.652C101.771 94.1832 102.694 93.9489 103.759 93.9489C104.825 93.9489 105.748 94.1832 106.529 94.652C107.31 95.1207 107.914 95.7789 108.34 96.6264C108.771 97.474 108.987 98.4612 108.987 99.5881C108.987 100.715 108.771 101.7 108.34 102.543C107.914 103.385 107.31 104.041 106.529 104.51C105.748 104.979 104.825 105.213 103.759 105.213ZM103.773 103.153C104.351 103.153 104.834 102.995 105.222 102.678C105.611 102.356 105.899 101.925 106.089 101.385C106.283 100.845 106.38 100.244 106.38 99.581C106.38 98.9134 106.283 98.3097 106.089 97.7699C105.899 97.2254 105.611 96.7921 105.222 96.4702C104.834 96.1482 104.351 95.9872 103.773 95.9872C103.182 95.9872 102.689 96.1482 102.296 96.4702C101.908 96.7921 101.617 97.2254 101.423 97.7699C101.233 98.3097 101.138 98.9134 101.138 99.581C101.138 100.244 101.233 100.845 101.423 101.385C101.617 101.925 101.908 102.356 102.296 102.678C102.689 102.995 103.182 103.153 103.773 103.153ZM115.927 105.213C114.862 105.213 113.939 104.979 113.157 104.51C112.376 104.041 111.77 103.385 111.339 102.543C110.913 101.7 110.7 100.715 110.7 99.5881C110.7 98.4612 110.913 97.474 111.339 96.6264C111.77 95.7789 112.376 95.1207 113.157 94.652C113.939 94.1832 114.862 93.9489 115.927 93.9489C116.993 93.9489 117.916 94.1832 118.697 94.652C119.478 95.1207 120.082 95.7789 120.508 96.6264C120.939 97.474 121.154 98.4612 121.154 99.5881C121.154 100.715 120.939 101.7 120.508 102.543C120.082 103.385 119.478 104.041 118.697 104.51C117.916 104.979 116.993 105.213 115.927 105.213ZM115.941 103.153C116.519 103.153 117.002 102.995 117.39 102.678C117.779 102.356 118.067 101.925 118.257 101.385C118.451 100.845 118.548 100.244 118.548 99.581C118.548 98.9134 118.451 98.3097 118.257 97.7699C118.067 97.2254 117.779 96.7921 117.39 96.4702C117.002 96.1482 116.519 95.9872 115.941 95.9872C115.35 95.9872 114.857 96.1482 114.464 96.4702C114.076 96.7921 113.785 97.2254 113.591 97.7699C113.401 98.3097 113.306 98.9134 113.306 99.581C113.306 100.244 113.401 100.845 113.591 101.385C113.785 101.925 114.076 102.356 114.464 102.678C114.857 102.995 115.35 103.153 115.941 103.153ZM128.784 94.0909V96.0795H122.513V94.0909H128.784ZM124.061 91.4773H126.632V101.719C126.632 102.064 126.684 102.33 126.788 102.514C126.897 102.694 127.039 102.817 127.214 102.884C127.39 102.95 127.584 102.983 127.797 102.983C127.958 102.983 128.105 102.971 128.237 102.947C128.375 102.924 128.479 102.902 128.55 102.884L128.983 104.893C128.846 104.941 128.649 104.993 128.393 105.05C128.143 105.107 127.835 105.14 127.47 105.149C126.826 105.168 126.246 105.071 125.73 104.858C125.214 104.64 124.804 104.304 124.501 103.849C124.203 103.395 124.056 102.827 124.061 102.145V91.4773ZM135.576 105.213C134.487 105.213 133.551 104.974 132.77 104.496C131.994 104.018 131.395 103.357 130.973 102.514C130.557 101.667 130.348 100.691 130.348 99.5881C130.348 98.4801 130.561 97.5024 130.988 96.6548C131.414 95.8026 132.015 95.1397 132.792 94.6662C133.573 94.188 134.496 93.9489 135.561 93.9489C136.447 93.9489 137.23 94.1122 137.912 94.4389C138.599 94.7609 139.146 95.2178 139.553 95.8097C139.96 96.3968 140.192 97.0833 140.249 97.8693H137.792C137.692 97.3437 137.455 96.9058 137.081 96.5554C136.712 96.2003 136.217 96.0227 135.597 96.0227C135.071 96.0227 134.61 96.1648 134.212 96.4489C133.814 96.7282 133.504 97.1307 133.282 97.6562C133.064 98.1818 132.955 98.8116 132.955 99.5455C132.955 100.289 133.064 100.928 133.282 101.463C133.499 101.993 133.805 102.403 134.198 102.692C134.596 102.976 135.062 103.118 135.597 103.118C135.976 103.118 136.314 103.047 136.613 102.905C136.916 102.758 137.169 102.547 137.373 102.273C137.576 101.998 137.716 101.664 137.792 101.271H140.249C140.187 102.043 139.96 102.727 139.567 103.324C139.174 103.916 138.639 104.38 137.962 104.716C137.285 105.047 136.489 105.213 135.576 105.213ZM144.931 98.608V105H142.36V90.4545H144.874V95.9446H145.002C145.258 95.3291 145.653 94.8437 146.188 94.4886C146.728 94.1288 147.415 93.9489 148.248 93.9489C149.005 93.9489 149.666 94.1075 150.229 94.4247C150.793 94.742 151.228 95.206 151.536 95.8168C151.849 96.4276 152.005 97.1733 152.005 98.054V105H149.434V98.4517C149.434 97.7178 149.245 97.1473 148.866 96.7401C148.492 96.3281 147.966 96.1222 147.289 96.1222C146.835 96.1222 146.427 96.2216 146.067 96.4205C145.712 96.6146 145.433 96.8963 145.229 97.2656C145.031 97.6349 144.931 98.0824 144.931 98.608Z" fill="#324D67"/>
<path d="M86.9523 26.5L74.4523 43C74.4523 28 62.9523 15 44.9523 14.5C30.5523 14.1 21.619 24.3333 18.9523 29.5C11.7523 44.3 17.619 57.3333 21.4523 62C31.4523 74 46.2857 74 52.4523 72.5L41.9523 86C25.1523 85.2 13.619 76 9.95234 71.5C5.78567 66.8333 -1.94766 53.5 0.45234 37.5C2.85234 21.5 12.4523 12.1667 16.9523 9.49999C27.3523 0.699993 43.2857 0.16666 49.9523 0.999993C71.1523 2.19999 83.4523 18.5 86.9523 26.5Z" fill="#324D67"/>
<path d="M61.5961 59.4991L74.1879 43.069C74.1042 58.0688 85.5316 71.1327 103.529 71.7331C117.926 72.2133 126.916 62.03 129.612 56.8783C136.894 42.1186 131.1 29.0528 127.293 24.3648C117.36 12.3093 102.527 12.2266 96.352 13.6921L106.927 0.250899C123.722 1.14456 135.204 10.4087 138.846 14.9291C142.986 19.6189 150.645 32.9952 148.156 48.9815C145.667 64.9679 136.015 74.2476 131.5 76.8891C121.051 85.631 105.115 86.0754 98.4533 85.205C77.2603 83.8868 65.0514 67.5185 61.5961 59.4991Z" fill="#324D67"/>
<path d="M48.9523 66.5V58.5C29.7523 57.3 29.2857 44 31.4523 37.5L58.9523 58.5C66.1523 50.5 65.619 39.8333 64.4523 35.5C59.6523 19.9 45.119 19 38.4523 20.5C22.8523 24.9 20.2857 38.3333 20.9523 44.5C24.9523 64.1 41.2857 67.3333 48.9523 66.5Z" fill="#E23D7D"/>
<path d="M55.4523 46.3712L36.4523 31.8712C42.8523 26.6712 50.119 29.7045 52.9523 31.8712C58.5523 35.8712 56.9523 43.2045 55.4523 46.3712Z" fill="#F7F7F7"/>
</svg>
